<?xml version="1.0" encoding="UTF-8" standalone="no"?>
<svg
   xmlns:dc="http://purl.org/dc/elements/1.1/"
   xmlns:cc="http://creativecommons.org/ns#"
   xmlns:rdf="http://www.w3.org/1999/02/22-rdf-syntax-ns#"
   xmlns:svg="http://www.w3.org/2000/svg"
   xmlns="http://www.w3.org/2000/svg"
   xmlns:xlink="http://www.w3.org/1999/xlink"
   xmlns:sodipodi="http://sodipodi.sourceforge.net/DTD/sodipodi-0.dtd"
   xmlns:inkscape="http://www.inkscape.org/namespaces/inkscape"
   width="522.28003"
   height="512.73999"
   version="1.1"
   id="svg2"
   inkscape:version="0.91 r"
   sodipodi:docname="coloredpoints.svg">
  <metadata
     id="metadata147">
    <rdf:RDF>
      <cc:Work
         rdf:about="">
        <dc:format>image/svg+xml</dc:format>
        <dc:type
           rdf:resource="http://purl.org/dc/dcmitype/StillImage" />
        <dc:title></dc:title>
      </cc:Work>
    </rdf:RDF>
  </metadata>
  <sodipodi:namedview
     pagecolor="#ffffff"
     bordercolor="#666666"
     borderopacity="1"
     objecttolerance="10"
     gridtolerance="10"
     guidetolerance="10"
     inkscape:pageopacity="0"
     inkscape:pageshadow="2"
     inkscape:window-width="1920"
     inkscape:window-height="1031"
     id="namedview145"
     showgrid="false"
     fit-margin-top="0"
     fit-margin-left="0"
     fit-margin-right="0"
     fit-margin-bottom="0"
     inkscape:zoom="0.88474012"
     inkscape:cx="-9.9349472"
     inkscape:cy="245.74213"
     inkscape:window-x="0"
     inkscape:window-y="32"
     inkscape:window-maximized="1"
     inkscape:current-layer="svg2" />
  <desc
     id="desc4">Veusz output document</desc>
  <defs
     id="defs6">
    <clipPath
       id="c0">
      <path
         d="m 0,0 533.49,0 0,533.49 L 0,533.49 0,0"
         id="path9"
         inkscape:connector-curvature="0" />
    </clipPath>
    <clipPath
       id="c1">
      <path
         d="m 60.46,7.11 465.91,0 0,465.91 -465.91,0 0,-465.91"
         id="path12"
         inkscape:connector-curvature="0" />
    </clipPath>
  </defs>
  <path
     style="fill:#ffffff;fill-rule:evenodd;stroke:#000000;stroke-width:1.25;stroke-linecap:square;stroke-linejoin:bevel"
     inkscape:connector-curvature="0"
     id="path20"
     d="m 52.35,2.71 465.91,0 0,465.91 -465.91,0 0,-465.91" />
  <g
     style="fill-rule:evenodd;stroke:#000000;stroke-linecap:square;stroke-linejoin:bevel"
     transform="translate(-8.11,-4.4)"
     id="g22"
     clip-path="url(#c1)">
    <g
       style="fill:none;stroke-width:0.62"
       id="g24">
      <polyline
         style="fill:none"
         id="polyline26"
         points="60.46,193.48 69.97,198.23 79.48,202.99 88.99,207.74 98.5,212.5 108,217.25 117.51,222 127.02,226.76 136.53,231.51 146.04,236.27 155.55,241.02 165.06,245.78 174.56,250.53 184.07,255.28 193.58,260.04 203.09,264.79 212.6,269.55 222.11,274.3 231.61,279.05 241.12,283.81 250.63,288.56 260.14,293.32 269.65,298.07 279.16,302.83 288.66,307.58 298.17,312.33 307.68,317.09 317.19,321.84 326.7,326.6 336.21,331.35 345.72,336.11 355.22,340.86 364.73,345.61 374.24,350.37 383.75,355.12 393.26,359.88 402.77,364.63 412.27,369.39 421.78,374.14 431.29,378.89 440.8,383.65 450.31,388.4 459.82,393.16 469.33,397.91 478.83,402.66 488.34,407.42 497.85,412.17 507.36,416.93 516.87,421.68 526.38,426.44" />
    </g>
  </g>
  <g
     id="g30"
     transform="translate(-8.11,-4.4)"
     style="fill:none;fill-rule:evenodd;stroke:#808080;stroke-width:0.62;stroke-linecap:square;stroke-linejoin:bevel;stroke-dasharray:0.625, 1.25">
    <path
       d="m 60.46,379.84 465.91,0 m -465.91,-93.18 465.91,0 m -465.91,-93.18 465.91,0 M 60.46,100.3 l 465.91,0"
       id="path32"
       inkscape:connector-curvature="0" />
  </g>
  <g
     id="g34"
     transform="translate(-8.11,-4.4)"
     style="fill:none;fill-rule:evenodd;stroke:#000000;stroke-width:1.25;stroke-linecap:butt;stroke-linejoin:bevel">
    <path
       d="m 60.46,473.03 0,-465.91"
       id="path36"
       inkscape:connector-curvature="0" />
  </g>
  <g
     id="g38"
     transform="translate(-8.11,-4.4)"
     style="fill:none;fill-rule:evenodd;stroke:#000000;stroke-width:0.62;stroke-linecap:butt;stroke-linejoin:bevel">
    <path
       d="m 60.46,473.03 3.75,0 m -3.75,-23.3 3.75,0 m -3.75,-23.29 3.75,0 m -3.75,-23.3 3.75,0 m -3.75,-23.3 3.75,0 m -3.75,-23.29 3.75,0 m -3.75,-23.3 3.75,0 m -3.75,-23.29 3.75,0 m -3.75,-23.3 3.75,0 m -3.75,-23.29 3.75,0 m -3.75,-23.3 3.75,0 m -3.75,-23.3 3.75,0 m -3.75,-23.29 3.75,0 m -3.75,-23.3 3.75,0 m -3.75,-23.29 3.75,0 m -3.75,-23.3 3.75,0 m -3.75,-23.29 3.75,0 M 60.46,77 l 3.75,0 m -3.75,-23.3 3.75,0 m -3.75,-23.29 3.75,0 m -3.75,-23.3 3.75,0"
       id="path40"
       inkscape:connector-curvature="0" />
    <path
       d="m 60.46,473.03 7.5,0 m -7.5,-93.19 7.5,0 m -7.5,-93.18 7.5,0 m -7.5,-93.18 7.5,0 m -7.5,-93.18 7.5,0 m -7.5,-93.19 7.5,0"
       id="path42"
       inkscape:connector-curvature="0" />
  </g>
  <g
     id="g44"
     transform="translate(-8.11,-4.4)"
     style="fill:none;fill-rule:evenodd;stroke:#000000;stroke-width:1.25;stroke-linecap:butt;stroke-linejoin:bevel">
    <path
       d="m 526.38,473.03 0,-465.91"
       id="path46"
       inkscape:connector-curvature="0" />
  </g>
  <g
     id="g48"
     transform="translate(-8.11,-4.4)"
     style="fill:none;fill-rule:evenodd;stroke:#000000;stroke-width:0.62;stroke-linecap:butt;stroke-linejoin:bevel">
    <path
       d="m 526.38,473.03 -3.75,0 m 3.75,-23.3 -3.75,0 m 3.75,-23.29 -3.75,0 m 3.75,-23.3 -3.75,0 m 3.75,-23.3 -3.75,0 m 3.75,-23.29 -3.75,0 m 3.75,-23.3 -3.75,0 m 3.75,-23.29 -3.75,0 m 3.75,-23.3 -3.75,0 m 3.75,-23.29 -3.75,0 m 3.75,-23.3 -3.75,0 m 3.75,-23.3 -3.75,0 m 3.75,-23.29 -3.75,0 m 3.75,-23.3 -3.75,0 m 3.75,-23.29 -3.75,0 m 3.75,-23.3 -3.75,0 m 3.75,-23.29 -3.75,0 m 3.75,-23.3 -3.75,0 m 3.75,-23.3 -3.75,0 m 3.75,-23.29 -3.75,0 m 3.75,-23.3 -3.75,0"
       id="path50"
       inkscape:connector-curvature="0" />
    <path
       d="m 526.38,473.03 -7.5,0 m 7.5,-93.19 -7.5,0 m 7.5,-93.18 -7.5,0 m 7.5,-93.18 -7.5,0 m 7.5,-93.18 -7.5,0 m 7.5,-93.19 -7.5,0"
       id="path52"
       inkscape:connector-curvature="0" />
  </g>
  <g
     style="fill:none;fill-rule:evenodd;stroke:#000000;stroke-width:1;stroke-linecap:square;stroke-linejoin:bevel"
     id="g56"
     transform="matrix(0,-1,1,0,12.03,244.91)">
    <path
       style="fill:#000000;fill-opacity:1;stroke:none"
       inkscape:connector-curvature="0"
       id="path58"
       d="M 6.84,0 4.35,-3.79 1.85,0 0.19,0 3.48,-4.75 0.34,-9.24 l 1.7,0 2.31,3.6 2.29,-3.6 1.72,0 -3.14,4.48 3.33,4.77 -1.72,0 m 3.24,0 0,-1.31 3.07,0 0,-9.26 -2.72,1.94 0,-1.45 2.85,-1.96 1.42,0 0,10.73 2.93,0 0,1.31 -7.55,0" />
  </g>
  <path
     style="fill:#000000;fill-opacity:1;fill-rule:evenodd;stroke:none;stroke-width:1;stroke-linecap:square;stroke-linejoin:bevel"
     inkscape:connector-curvature="0"
     id="path60"
     d="m 47.57,468.85 c 0,1.16 -0.11,2.13 -0.33,2.92 -0.22,0.79 -0.52,1.43 -0.9,1.91 -0.38,0.49 -0.82,0.84 -1.34,1.05 -0.51,0.21 -1.06,0.32 -1.64,0.32 -0.59,0 -1.13,-0.11 -1.64,-0.32 -0.51,-0.21 -0.95,-0.56 -1.32,-1.04 -0.37,-0.48 -0.67,-1.12 -0.88,-1.91 -0.21,-0.79 -0.32,-1.76 -0.32,-2.93 0,-1.21 0.11,-2.22 0.32,-3.01 0.21,-0.79 0.51,-1.43 0.88,-1.9 0.38,-0.47 0.82,-0.8 1.33,-1 0.51,-0.19 1.07,-0.29 1.67,-0.29 0.57,0 1.11,0.1 1.62,0.29 0.5,0.19 0.94,0.52 1.32,1 0.38,0.47 0.67,1.11 0.89,1.9 0.22,0.79 0.32,1.8 0.32,3.01 m -1.56,0 c 0,-0.96 -0.06,-1.75 -0.17,-2.39 -0.11,-0.64 -0.28,-1.14 -0.5,-1.52 -0.22,-0.38 -0.49,-0.65 -0.82,-0.8 -0.32,-0.16 -0.69,-0.24 -1.1,-0.24 -0.43,0 -0.82,0.08 -1.15,0.24 -0.33,0.16 -0.61,0.43 -0.83,0.81 -0.22,0.38 -0.39,0.89 -0.51,1.52 -0.11,0.63 -0.17,1.43 -0.17,2.38 0,0.92 0.06,1.7 0.17,2.33 0.12,0.63 0.29,1.14 0.51,1.53 0.22,0.38 0.5,0.66 0.82,0.83 0.32,0.17 0.7,0.25 1.11,0.25 0.4,0 0.77,-0.08 1.09,-0.25 0.32,-0.17 0.6,-0.44 0.82,-0.83 0.22,-0.38 0.4,-0.89 0.52,-1.53 0.12,-0.63 0.18,-1.41 0.18,-2.33" />
  <path
     style="fill:#000000;fill-opacity:1;fill-rule:evenodd;stroke:none;stroke-width:1;stroke-linecap:square;stroke-linejoin:bevel"
     inkscape:connector-curvature="0"
     id="path62"
     d="m 32.98,375.67 c 0,1.16 -0.11,2.13 -0.33,2.92 -0.22,0.79 -0.52,1.43 -0.9,1.91 -0.38,0.49 -0.82,0.84 -1.34,1.05 -0.51,0.21 -1.06,0.32 -1.64,0.32 -0.59,0 -1.13,-0.11 -1.64,-0.32 -0.51,-0.21 -0.95,-0.56 -1.32,-1.04 -0.37,-0.48 -0.67,-1.12 -0.88,-1.91 -0.21,-0.79 -0.32,-1.76 -0.32,-2.93 0,-1.21 0.11,-2.22 0.32,-3.01 0.21,-0.79 0.51,-1.43 0.88,-1.9 0.38,-0.47 0.82,-0.8 1.33,-1 0.51,-0.19 1.07,-0.29 1.67,-0.29 0.57,0 1.11,0.1 1.62,0.29 0.5,0.19 0.94,0.52 1.32,1 0.38,0.47 0.67,1.11 0.89,1.9 0.22,0.79 0.32,1.8 0.32,3.01 m -1.56,0 c 0,-0.96 -0.06,-1.75 -0.17,-2.39 -0.11,-0.64 -0.28,-1.14 -0.5,-1.52 -0.22,-0.38 -0.49,-0.65 -0.82,-0.8 -0.32,-0.16 -0.69,-0.24 -1.1,-0.24 -0.43,0 -0.82,0.08 -1.15,0.24 -0.33,0.16 -0.61,0.43 -0.83,0.81 -0.22,0.38 -0.39,0.89 -0.51,1.52 -0.11,0.63 -0.17,1.43 -0.17,2.38 0,0.92 0.06,1.7 0.17,2.33 0.12,0.63 0.29,1.14 0.51,1.53 0.22,0.38 0.5,0.66 0.82,0.83 0.32,0.17 0.7,0.25 1.11,0.25 0.4,0 0.77,-0.08 1.09,-0.25 0.32,-0.17 0.6,-0.44 0.82,-0.83 0.22,-0.38 0.4,-0.89 0.52,-1.53 0.12,-0.63 0.18,-1.41 0.18,-2.33 m 5.53,4.15 0,1.44 c 0,0.3 -0.01,0.58 -0.04,0.82 -0.03,0.25 -0.07,0.48 -0.12,0.69 -0.06,0.21 -0.13,0.41 -0.21,0.6 -0.08,0.19 -0.18,0.37 -0.29,0.56 l -1.05,0 c 0.26,-0.37 0.45,-0.74 0.59,-1.12 0.14,-0.38 0.21,-0.75 0.21,-1.12 l -0.75,0 0,-1.87 1.67,0 m 2.45,1.87 0,-1.09 c 0.29,-0.67 0.65,-1.25 1.06,-1.76 0.42,-0.51 0.86,-0.97 1.32,-1.38 0.46,-0.41 0.92,-0.8 1.37,-1.15 0.45,-0.35 0.86,-0.71 1.23,-1.06 0.36,-0.35 0.66,-0.72 0.88,-1.11 0.22,-0.39 0.34,-0.83 0.34,-1.32 0,-0.34 -0.05,-0.64 -0.15,-0.9 -0.1,-0.26 -0.25,-0.48 -0.44,-0.65 -0.19,-0.18 -0.43,-0.31 -0.7,-0.4 -0.27,-0.09 -0.57,-0.13 -0.9,-0.13 -0.31,0 -0.6,0.04 -0.87,0.13 -0.27,0.09 -0.51,0.21 -0.72,0.38 -0.21,0.17 -0.38,0.38 -0.52,0.64 -0.13,0.25 -0.22,0.55 -0.26,0.89 l -1.57,-0.15 c 0.05,-0.43 0.17,-0.84 0.36,-1.22 0.19,-0.38 0.45,-0.72 0.78,-1 0.33,-0.29 0.73,-0.51 1.19,-0.68 0.46,-0.17 1,-0.25 1.61,-0.25 0.6,0 1.13,0.07 1.6,0.21 0.47,0.14 0.86,0.35 1.18,0.63 0.32,0.28 0.57,0.62 0.74,1.03 0.17,0.41 0.26,0.88 0.26,1.42 0,0.4 -0.07,0.79 -0.22,1.15 -0.15,0.36 -0.34,0.71 -0.58,1.04 -0.24,0.33 -0.52,0.65 -0.84,0.96 -0.32,0.31 -0.65,0.61 -1,0.9 -0.35,0.29 -0.7,0.58 -1.05,0.87 -0.35,0.29 -0.68,0.58 -1,0.87 -0.31,0.29 -0.59,0.58 -0.83,0.88 -0.25,0.3 -0.44,0.61 -0.57,0.94 l 6.28,0 0,1.31 -7.97,0" />
  <path
     style="fill:#000000;fill-opacity:1;fill-rule:evenodd;stroke:none;stroke-width:1;stroke-linecap:square;stroke-linejoin:bevel"
     inkscape:connector-curvature="0"
     id="path64"
     d="m 32.98,282.49 c 0,1.16 -0.11,2.13 -0.33,2.92 -0.22,0.79 -0.52,1.43 -0.9,1.91 -0.38,0.49 -0.82,0.84 -1.34,1.05 -0.51,0.21 -1.06,0.32 -1.64,0.32 -0.59,0 -1.13,-0.11 -1.64,-0.32 -0.51,-0.21 -0.95,-0.56 -1.32,-1.04 -0.37,-0.48 -0.67,-1.12 -0.88,-1.91 -0.21,-0.79 -0.32,-1.76 -0.32,-2.93 0,-1.21 0.11,-2.22 0.32,-3.01 0.21,-0.79 0.51,-1.43 0.88,-1.9 0.38,-0.47 0.82,-0.8 1.33,-1 0.51,-0.19 1.07,-0.29 1.67,-0.29 0.57,0 1.11,0.1 1.62,0.29 0.5,0.19 0.94,0.52 1.32,1 0.38,0.47 0.67,1.11 0.89,1.9 0.22,0.79 0.32,1.8 0.32,3.01 m -1.56,0 c 0,-0.96 -0.06,-1.75 -0.17,-2.39 -0.11,-0.64 -0.28,-1.14 -0.5,-1.52 -0.22,-0.38 -0.49,-0.65 -0.82,-0.8 -0.32,-0.16 -0.69,-0.24 -1.1,-0.24 -0.43,0 -0.82,0.08 -1.15,0.24 -0.33,0.16 -0.61,0.43 -0.83,0.81 -0.22,0.38 -0.39,0.89 -0.51,1.52 -0.11,0.63 -0.17,1.43 -0.17,2.38 0,0.92 0.06,1.7 0.17,2.33 0.12,0.63 0.29,1.14 0.51,1.53 0.22,0.38 0.5,0.66 0.82,0.83 0.32,0.17 0.7,0.25 1.11,0.25 0.4,0 0.77,-0.08 1.09,-0.25 0.32,-0.17 0.6,-0.44 0.82,-0.83 0.22,-0.38 0.4,-0.89 0.52,-1.53 0.12,-0.63 0.18,-1.41 0.18,-2.33 m 5.53,4.15 0,1.44 c 0,0.3 -0.01,0.58 -0.04,0.82 -0.03,0.25 -0.07,0.48 -0.12,0.69 -0.06,0.21 -0.13,0.41 -0.21,0.6 -0.08,0.19 -0.18,0.37 -0.29,0.56 l -1.05,0 c 0.26,-0.37 0.45,-0.74 0.59,-1.12 0.14,-0.38 0.21,-0.75 0.21,-1.12 l -0.75,0 0,-1.87 1.67,0 m 9.1,-0.85 0,2.73 -1.45,0 0,-2.73 -5.67,0 0,-1.2 5.51,-8.12 1.62,0 0,8.1 1.69,0 0,1.21 -1.69,0 m -1.45,-7.58 c -0.01,0.03 -0.04,0.08 -0.09,0.17 -0.05,0.08 -0.1,0.18 -0.15,0.28 -0.06,0.1 -0.12,0.21 -0.17,0.31 -0.06,0.11 -0.11,0.19 -0.16,0.26 l -3.08,4.55 c -0.03,0.05 -0.07,0.11 -0.12,0.18 -0.05,0.07 -0.11,0.15 -0.17,0.23 -0.06,0.08 -0.11,0.15 -0.17,0.23 -0.06,0.07 -0.1,0.13 -0.14,0.17 l 4.25,0 0,-6.37" />
  <path
     style="fill:#000000;fill-opacity:1;fill-rule:evenodd;stroke:none;stroke-width:1;stroke-linecap:square;stroke-linejoin:bevel"
     inkscape:connector-curvature="0"
     id="path66"
     d="m 32.98,189.3 c 0,1.16 -0.11,2.13 -0.33,2.92 -0.22,0.79 -0.52,1.43 -0.9,1.91 -0.38,0.49 -0.82,0.84 -1.34,1.05 -0.51,0.21 -1.06,0.32 -1.64,0.32 -0.59,0 -1.13,-0.11 -1.64,-0.32 -0.51,-0.21 -0.95,-0.56 -1.32,-1.04 -0.37,-0.48 -0.67,-1.12 -0.88,-1.91 -0.21,-0.79 -0.32,-1.76 -0.32,-2.93 0,-1.21 0.11,-2.22 0.32,-3.01 0.21,-0.79 0.51,-1.43 0.88,-1.9 0.38,-0.47 0.82,-0.8 1.33,-1 0.51,-0.19 1.07,-0.29 1.67,-0.29 0.57,0 1.11,0.1 1.62,0.29 0.5,0.19 0.94,0.52 1.32,1 0.38,0.47 0.67,1.11 0.89,1.9 0.22,0.79 0.32,1.8 0.32,3.01 m -1.56,0 c 0,-0.96 -0.06,-1.75 -0.17,-2.39 -0.11,-0.64 -0.28,-1.14 -0.5,-1.52 -0.22,-0.38 -0.49,-0.65 -0.82,-0.8 -0.32,-0.16 -0.69,-0.24 -1.1,-0.24 -0.43,0 -0.82,0.08 -1.15,0.24 -0.33,0.16 -0.61,0.43 -0.83,0.81 -0.22,0.38 -0.39,0.89 -0.51,1.52 -0.11,0.63 -0.17,1.43 -0.17,2.38 0,0.92 0.06,1.7 0.17,2.33 0.12,0.63 0.29,1.14 0.51,1.53 0.22,0.38 0.5,0.66 0.82,0.83 0.32,0.17 0.7,0.25 1.11,0.25 0.4,0 0.77,-0.08 1.09,-0.25 0.32,-0.17 0.6,-0.44 0.82,-0.83 0.22,-0.38 0.4,-0.89 0.52,-1.53 0.12,-0.63 0.18,-1.41 0.18,-2.33 m 5.53,4.15 0,1.44 c 0,0.3 -0.01,0.58 -0.04,0.82 -0.03,0.25 -0.07,0.48 -0.12,0.69 -0.06,0.21 -0.13,0.41 -0.21,0.6 -0.08,0.19 -0.18,0.37 -0.29,0.56 l -1.05,0 c 0.26,-0.37 0.45,-0.74 0.59,-1.12 0.14,-0.38 0.21,-0.75 0.21,-1.12 l -0.75,0 0,-1.87 1.67,0 m 10.54,-2.07 c 0,0.6 -0.08,1.16 -0.25,1.66 -0.17,0.5 -0.42,0.94 -0.74,1.3 -0.33,0.36 -0.73,0.64 -1.22,0.85 -0.48,0.2 -1.04,0.3 -1.67,0.3 -0.7,0 -1.31,-0.13 -1.84,-0.4 -0.52,-0.27 -0.96,-0.65 -1.31,-1.16 -0.35,-0.5 -0.61,-1.12 -0.78,-1.85 -0.17,-0.73 -0.26,-1.56 -0.26,-2.5 0,-1.07 0.1,-2.01 0.29,-2.82 0.2,-0.81 0.48,-1.48 0.85,-2.02 0.37,-0.54 0.82,-0.95 1.35,-1.22 0.53,-0.27 1.14,-0.41 1.81,-0.41 0.41,0 0.8,0.04 1.15,0.13 0.36,0.09 0.68,0.22 0.98,0.41 0.29,0.19 0.55,0.44 0.77,0.76 0.22,0.31 0.4,0.7 0.53,1.15 l -1.47,0.27 c -0.16,-0.52 -0.41,-0.89 -0.76,-1.12 -0.35,-0.23 -0.76,-0.35 -1.22,-0.35 -0.42,0 -0.8,0.1 -1.15,0.3 -0.34,0.2 -0.63,0.5 -0.87,0.89 -0.24,0.4 -0.42,0.89 -0.55,1.49 -0.13,0.6 -0.19,1.3 -0.19,2.09 0.28,-0.52 0.67,-0.91 1.18,-1.18 0.51,-0.27 1.09,-0.41 1.74,-0.41 0.55,0 1.04,0.09 1.49,0.26 0.44,0.18 0.82,0.43 1.14,0.76 0.32,0.33 0.56,0.74 0.74,1.21 0.17,0.48 0.26,1.01 0.26,1.6 m -1.56,0.07 c 0,-0.42 -0.05,-0.79 -0.15,-1.13 -0.1,-0.34 -0.26,-0.62 -0.46,-0.86 -0.21,-0.24 -0.46,-0.42 -0.76,-0.55 -0.3,-0.13 -0.65,-0.19 -1.05,-0.19 -0.28,0 -0.56,0.04 -0.85,0.12 -0.28,0.08 -0.54,0.22 -0.77,0.4 -0.23,0.18 -0.42,0.43 -0.56,0.73 -0.15,0.3 -0.22,0.67 -0.22,1.1 0,0.44 0.06,0.86 0.17,1.24 0.11,0.38 0.28,0.72 0.49,1 0.21,0.28 0.47,0.51 0.77,0.67 0.3,0.17 0.64,0.25 1.02,0.25 0.37,0 0.7,-0.06 0.99,-0.19 0.29,-0.13 0.54,-0.31 0.75,-0.56 0.21,-0.24 0.36,-0.54 0.47,-0.88 0.11,-0.35 0.16,-0.74 0.16,-1.17" />
  <path
     style="fill:#000000;fill-opacity:1;fill-rule:evenodd;stroke:none;stroke-width:1;stroke-linecap:square;stroke-linejoin:bevel"
     inkscape:connector-curvature="0"
     id="path68"
     d="m 32.98,96.12 c 0,1.16 -0.11,2.13 -0.33,2.92 -0.22,0.79 -0.52,1.43 -0.9,1.91 -0.38,0.49 -0.82,0.84 -1.34,1.05 -0.51,0.21 -1.06,0.32 -1.64,0.32 -0.59,0 -1.13,-0.11 -1.64,-0.32 -0.51,-0.21 -0.95,-0.56 -1.32,-1.04 -0.37,-0.48 -0.67,-1.12 -0.88,-1.91 -0.21,-0.79 -0.32,-1.76 -0.32,-2.93 0,-1.21 0.11,-2.22 0.32,-3.01 0.21,-0.79 0.51,-1.43 0.88,-1.9 0.38,-0.47 0.82,-0.8 1.33,-1 0.51,-0.19 1.07,-0.29 1.67,-0.29 0.57,0 1.11,0.1 1.62,0.29 0.5,0.19 0.94,0.52 1.32,1 0.38,0.47 0.67,1.11 0.89,1.9 0.22,0.79 0.32,1.8 0.32,3.01 m -1.56,0 c 0,-0.96 -0.06,-1.75 -0.17,-2.39 -0.11,-0.64 -0.28,-1.14 -0.5,-1.52 -0.22,-0.38 -0.49,-0.65 -0.82,-0.8 -0.32,-0.16 -0.69,-0.24 -1.1,-0.24 -0.43,0 -0.82,0.08 -1.15,0.24 -0.33,0.16 -0.61,0.43 -0.83,0.81 -0.22,0.38 -0.39,0.89 -0.51,1.52 -0.11,0.63 -0.17,1.43 -0.17,2.38 0,0.92 0.06,1.7 0.17,2.33 0.12,0.63 0.29,1.14 0.51,1.53 0.22,0.38 0.5,0.66 0.82,0.83 0.32,0.17 0.7,0.25 1.11,0.25 0.4,0 0.77,-0.08 1.09,-0.25 0.32,-0.17 0.6,-0.44 0.82,-0.83 0.22,-0.38 0.4,-0.89 0.52,-1.53 0.12,-0.63 0.18,-1.41 0.18,-2.33 m 5.53,4.15 0,1.44 c 0,0.3 -0.01,0.58 -0.04,0.82 -0.03,0.25 -0.07,0.48 -0.12,0.69 -0.06,0.21 -0.13,0.41 -0.21,0.6 -0.08,0.19 -0.18,0.37 -0.29,0.56 l -1.05,0 c 0.26,-0.37 0.45,-0.74 0.59,-1.12 0.14,-0.38 0.21,-0.75 0.21,-1.12 l -0.75,0 0,-1.87 1.67,0 m 10.54,-1.49 c 0,0.51 -0.08,0.98 -0.24,1.41 -0.16,0.43 -0.41,0.8 -0.74,1.11 -0.33,0.31 -0.76,0.56 -1.28,0.73 -0.52,0.18 -1.13,0.26 -1.84,0.26 -0.71,0 -1.32,-0.09 -1.83,-0.26 -0.52,-0.18 -0.94,-0.42 -1.28,-0.73 -0.34,-0.31 -0.59,-0.68 -0.75,-1.11 -0.16,-0.43 -0.24,-0.9 -0.24,-1.4 0,-0.44 0.07,-0.83 0.2,-1.17 0.13,-0.34 0.31,-0.64 0.54,-0.88 0.22,-0.25 0.48,-0.45 0.77,-0.6 0.29,-0.15 0.58,-0.25 0.89,-0.3 l 0,-0.03 C 41.31,95.73 41.01,95.6 40.75,95.42 40.48,95.24 40.26,95.03 40.08,94.78 39.9,94.53 39.76,94.26 39.67,93.96 39.58,93.66 39.53,93.34 39.53,93 c 0,-0.42 0.08,-0.82 0.24,-1.19 0.16,-0.37 0.4,-0.7 0.72,-0.98 0.32,-0.28 0.71,-0.5 1.19,-0.67 0.47,-0.16 1.02,-0.24 1.64,-0.24 0.66,0 1.22,0.08 1.7,0.25 0.48,0.17 0.88,0.39 1.2,0.67 0.32,0.28 0.55,0.61 0.71,0.99 0.15,0.38 0.23,0.77 0.23,1.2 0,0.33 -0.05,0.65 -0.14,0.95 -0.09,0.3 -0.23,0.58 -0.41,0.82 -0.18,0.25 -0.4,0.46 -0.67,0.63 -0.27,0.17 -0.57,0.3 -0.92,0.36 l 0,0.03 c 0.35,0.06 0.67,0.16 0.96,0.31 0.3,0.15 0.55,0.35 0.77,0.6 0.22,0.25 0.39,0.54 0.51,0.88 0.12,0.34 0.19,0.73 0.19,1.16 m -1.9,-5.67 c 0,-0.3 -0.04,-0.58 -0.12,-0.83 -0.08,-0.25 -0.2,-0.47 -0.38,-0.65 -0.18,-0.18 -0.41,-0.32 -0.69,-0.42 -0.28,-0.1 -0.63,-0.15 -1.05,-0.15 -0.4,0 -0.75,0.05 -1.02,0.15 -0.28,0.1 -0.51,0.24 -0.69,0.42 -0.18,0.18 -0.31,0.39 -0.39,0.65 -0.08,0.25 -0.12,0.53 -0.12,0.83 0,0.24 0.03,0.48 0.09,0.73 0.06,0.25 0.18,0.48 0.34,0.68 0.17,0.21 0.39,0.37 0.68,0.5 0.29,0.13 0.66,0.2 1.12,0.2 0.48,0 0.87,-0.07 1.17,-0.2 0.29,-0.13 0.52,-0.3 0.67,-0.5 0.16,-0.21 0.26,-0.43 0.31,-0.68 0.05,-0.25 0.07,-0.5 0.07,-0.73 m 0.3,5.53 c 0,-0.29 -0.04,-0.57 -0.12,-0.84 -0.08,-0.27 -0.22,-0.51 -0.41,-0.72 -0.19,-0.21 -0.45,-0.38 -0.78,-0.5 -0.33,-0.13 -0.74,-0.19 -1.23,-0.19 -0.45,0 -0.83,0.06 -1.15,0.19 -0.32,0.13 -0.57,0.3 -0.77,0.51 -0.2,0.21 -0.34,0.45 -0.43,0.73 -0.09,0.28 -0.14,0.56 -0.14,0.86 0,0.37 0.05,0.71 0.14,1.01 0.09,0.3 0.24,0.57 0.44,0.79 0.2,0.22 0.46,0.39 0.79,0.51 0.32,0.12 0.72,0.18 1.18,0.18 0.47,0 0.86,-0.06 1.18,-0.18 0.32,-0.12 0.57,-0.29 0.77,-0.51 0.19,-0.22 0.33,-0.48 0.41,-0.79 0.08,-0.31 0.12,-0.66 0.12,-1.04" />
  <path
     style="fill:#000000;fill-opacity:1;fill-rule:evenodd;stroke:none;stroke-width:1;stroke-linecap:square;stroke-linejoin:bevel"
     inkscape:connector-curvature="0"
     id="path70"
     d="m 39.85,12.04 0,-1.31 3.07,0 0,-9.26 -2.72,1.94 0,-1.45 2.85,-1.96 1.42,0 0,10.73 2.93,0 0,1.31 -7.55,0" />
  <g
     id="g72"
     transform="translate(-8.11,-4.4)"
     style="fill:none;fill-rule:evenodd;stroke:#808080;stroke-width:0.62;stroke-linecap:square;stroke-linejoin:bevel;stroke-dasharray:0.625, 1.25">
    <path
       d="m 153.64,7.11 0,465.91 m 93.19,-465.91 0,465.91 m 93.18,-465.91 0,465.91 m 93.18,-465.91 0,465.91"
       id="path74"
       inkscape:connector-curvature="0" />
  </g>
  <g
     id="g76"
     transform="translate(-8.11,-4.4)"
     style="fill:none;fill-rule:evenodd;stroke:#000000;stroke-width:1.25;stroke-linecap:butt;stroke-linejoin:bevel">
    <path
       d="m 60.46,473.03 465.91,0"
       id="path78"
       inkscape:connector-curvature="0" />
  </g>
  <g
     id="g80"
     transform="translate(-8.11,-4.4)"
     style="fill:none;fill-rule:evenodd;stroke:#000000;stroke-width:0.62;stroke-linecap:butt;stroke-linejoin:bevel">
    <path
       d="m 60.46,473.03 0,-3.75 m 23.3,3.75 0,-3.75 m 23.29,3.75 0,-3.75 m 23.3,3.75 0,-3.75 m 23.29,3.75 0,-3.75 m 23.3,3.75 0,-3.75 m 23.3,3.75 0,-3.75 m 23.29,3.75 0,-3.75 m 23.3,3.75 0,-3.75 m 23.29,3.75 0,-3.75 m 23.3,3.75 0,-3.75 m 23.29,3.75 0,-3.75 m 23.3,3.75 0,-3.75 m 23.3,3.75 0,-3.75 m 23.29,3.75 0,-3.75 m 23.3,3.75 0,-3.75 m 23.29,3.75 0,-3.75 m 23.3,3.75 0,-3.75 m 23.29,3.75 0,-3.75 m 23.3,3.75 0,-3.75 m 23.3,3.75 0,-3.75"
       id="path82"
       inkscape:connector-curvature="0" />
    <path
       d="m 60.46,473.03 0,-7.5 m 93.18,7.5 0,-7.5 m 93.19,7.5 0,-7.5 m 93.18,7.5 0,-7.5 m 93.18,7.5 0,-7.5 m 93.19,7.5 0,-7.5"
       id="path84"
       inkscape:connector-curvature="0" />
  </g>
  <g
     id="g86"
     transform="translate(-8.11,-4.4)"
     style="fill:none;fill-rule:evenodd;stroke:#000000;stroke-width:1.25;stroke-linecap:butt;stroke-linejoin:bevel">
    <path
       d="m 60.46,7.11 465.91,0"
       id="path88"
       inkscape:connector-curvature="0" />
  </g>
  <g
     id="g90"
     transform="translate(-8.11,-4.4)"
     style="fill:none;fill-rule:evenodd;stroke:#000000;stroke-width:0.62;stroke-linecap:butt;stroke-linejoin:bevel">
    <path
       d="m 60.46,7.11 0,3.75 m 23.3,-3.75 0,3.75 m 23.29,-3.75 0,3.75 m 23.3,-3.75 0,3.75 m 23.29,-3.75 0,3.75 m 23.3,-3.75 0,3.75 m 23.3,-3.75 0,3.75 m 23.29,-3.75 0,3.75 m 23.3,-3.75 0,3.75 m 23.29,-3.75 0,3.75 m 23.3,-3.75 0,3.75 m 23.29,-3.75 0,3.75 m 23.3,-3.75 0,3.75 m 23.3,-3.75 0,3.75 m 23.29,-3.75 0,3.75 m 23.3,-3.75 0,3.75 m 23.29,-3.75 0,3.75 m 23.3,-3.75 0,3.75 m 23.29,-3.75 0,3.75 m 23.3,-3.75 0,3.75 m 23.3,-3.75 0,3.75"
       id="path92"
       inkscape:connector-curvature="0" />
    <path
       d="m 60.46,7.11 0,7.5 m 93.18,-7.5 0,7.5 m 93.19,-7.5 0,7.5 m 93.18,-7.5 0,7.5 m 93.18,-7.5 0,7.5 m 93.19,-7.5 0,7.5"
       id="path94"
       inkscape:connector-curvature="0" />
  </g>
  <path
     style="fill:#000000;fill-opacity:1;fill-rule:evenodd;stroke:none;stroke-width:1;stroke-linecap:square;stroke-linejoin:bevel"
     inkscape:connector-curvature="0"
     id="path98"
     d="m 282.91,512.73 -2.49,-3.79 -2.5,3.79 -1.66,0 3.29,-4.75 -3.14,-4.49 1.7,0 2.31,3.6 2.29,-3.6 1.72,0 -3.14,4.48 3.33,4.77 -1.72,0 m 2.79,0 0,-1.09 c 0.29,-0.67 0.65,-1.25 1.06,-1.76 0.42,-0.51 0.86,-0.97 1.32,-1.38 0.46,-0.41 0.92,-0.8 1.37,-1.15 0.45,-0.35 0.86,-0.71 1.23,-1.06 0.36,-0.35 0.66,-0.72 0.88,-1.11 0.22,-0.39 0.34,-0.83 0.34,-1.32 0,-0.34 -0.05,-0.64 -0.15,-0.9 -0.1,-0.26 -0.25,-0.48 -0.44,-0.65 -0.19,-0.18 -0.43,-0.31 -0.7,-0.4 -0.27,-0.09 -0.57,-0.13 -0.9,-0.13 -0.31,0 -0.6,0.04 -0.87,0.13 -0.27,0.09 -0.51,0.21 -0.72,0.38 -0.21,0.17 -0.38,0.38 -0.52,0.64 -0.13,0.25 -0.22,0.55 -0.26,0.89 l -1.57,-0.15 c 0.05,-0.43 0.17,-0.84 0.36,-1.22 0.19,-0.38 0.45,-0.72 0.78,-1 0.33,-0.29 0.73,-0.51 1.19,-0.68 0.46,-0.17 1,-0.25 1.61,-0.25 0.6,0 1.13,0.07 1.6,0.21 0.47,0.14 0.86,0.35 1.18,0.63 0.32,0.28 0.57,0.62 0.74,1.03 0.17,0.41 0.26,0.88 0.26,1.42 0,0.4 -0.07,0.79 -0.22,1.15 -0.15,0.36 -0.34,0.71 -0.58,1.04 -0.24,0.33 -0.52,0.65 -0.84,0.96 -0.32,0.31 -0.65,0.61 -1,0.9 -0.35,0.29 -0.7,0.58 -1.05,0.87 -0.35,0.29 -0.68,0.58 -1,0.87 -0.31,0.29 -0.59,0.58 -0.83,0.88 -0.25,0.3 -0.44,0.61 -0.57,0.94 l 6.28,0 0,1.31 -7.97,0" />
  <path
     style="fill:#000000;fill-opacity:1;fill-rule:evenodd;stroke:none;stroke-width:1;stroke-linecap:square;stroke-linejoin:bevel"
     inkscape:connector-curvature="0"
     id="path100"
     d="m 56.53,482.6 c 0,1.16 -0.11,2.13 -0.33,2.92 -0.22,0.79 -0.52,1.43 -0.9,1.91 -0.38,0.49 -0.82,0.84 -1.34,1.05 -0.51,0.21 -1.06,0.32 -1.64,0.32 -0.59,0 -1.13,-0.11 -1.64,-0.32 -0.51,-0.21 -0.95,-0.56 -1.32,-1.04 -0.37,-0.48 -0.67,-1.12 -0.88,-1.91 -0.21,-0.79 -0.32,-1.76 -0.32,-2.93 0,-1.21 0.11,-2.22 0.32,-3.01 0.21,-0.79 0.51,-1.43 0.88,-1.9 0.38,-0.47 0.82,-0.8 1.33,-1 0.51,-0.19 1.07,-0.29 1.67,-0.29 0.57,0 1.11,0.1 1.62,0.29 0.5,0.19 0.94,0.52 1.32,1 0.38,0.47 0.67,1.11 0.89,1.9 0.22,0.79 0.32,1.8 0.32,3.01 m -1.56,0 c 0,-0.96 -0.06,-1.75 -0.17,-2.39 -0.11,-0.64 -0.28,-1.14 -0.5,-1.52 -0.22,-0.38 -0.49,-0.65 -0.82,-0.8 -0.32,-0.16 -0.69,-0.24 -1.1,-0.24 -0.43,0 -0.82,0.08 -1.15,0.24 -0.33,0.16 -0.61,0.43 -0.83,0.81 -0.22,0.38 -0.39,0.89 -0.51,1.52 -0.11,0.63 -0.17,1.43 -0.17,2.38 0,0.92 0.06,1.7 0.17,2.33 0.12,0.63 0.29,1.14 0.51,1.53 0.22,0.38 0.5,0.66 0.82,0.83 0.32,0.17 0.7,0.25 1.11,0.25 0.4,0 0.77,-0.08 1.09,-0.25 0.32,-0.17 0.6,-0.44 0.82,-0.83 0.22,-0.38 0.4,-0.89 0.52,-1.53 0.12,-0.63 0.18,-1.41 0.18,-2.33" />
  <path
     style="fill:#000000;fill-opacity:1;fill-rule:evenodd;stroke:none;stroke-width:1;stroke-linecap:square;stroke-linejoin:bevel"
     inkscape:connector-curvature="0"
     id="path102"
     d="m 142.42,482.6 c 0,1.16 -0.11,2.13 -0.33,2.92 -0.22,0.79 -0.52,1.43 -0.9,1.91 -0.38,0.49 -0.82,0.84 -1.34,1.05 -0.51,0.21 -1.06,0.32 -1.64,0.32 -0.59,0 -1.13,-0.11 -1.64,-0.32 -0.51,-0.21 -0.95,-0.56 -1.32,-1.04 -0.37,-0.48 -0.67,-1.12 -0.88,-1.91 -0.21,-0.79 -0.32,-1.76 -0.32,-2.93 0,-1.21 0.11,-2.22 0.32,-3.01 0.21,-0.79 0.51,-1.43 0.88,-1.9 0.38,-0.47 0.82,-0.8 1.33,-1 0.51,-0.19 1.07,-0.29 1.67,-0.29 0.57,0 1.11,0.1 1.62,0.29 0.5,0.19 0.94,0.52 1.32,1 0.38,0.47 0.67,1.11 0.89,1.9 0.22,0.79 0.32,1.8 0.32,3.01 m -1.56,0 c 0,-0.96 -0.06,-1.75 -0.17,-2.39 -0.11,-0.64 -0.28,-1.14 -0.5,-1.52 -0.22,-0.38 -0.49,-0.65 -0.82,-0.8 -0.32,-0.16 -0.69,-0.24 -1.1,-0.24 -0.43,0 -0.82,0.08 -1.15,0.24 -0.33,0.16 -0.61,0.43 -0.83,0.81 -0.22,0.38 -0.39,0.89 -0.51,1.52 -0.11,0.63 -0.17,1.43 -0.17,2.38 0,0.92 0.06,1.7 0.17,2.33 0.12,0.63 0.29,1.14 0.51,1.53 0.22,0.38 0.5,0.66 0.82,0.83 0.32,0.17 0.7,0.25 1.11,0.25 0.4,0 0.77,-0.08 1.09,-0.25 0.32,-0.17 0.6,-0.44 0.82,-0.83 0.22,-0.38 0.4,-0.89 0.52,-1.53 0.12,-0.63 0.18,-1.41 0.18,-2.33 m 5.53,4.15 0,1.44 c 0,0.3 -0.01,0.58 -0.04,0.82 -0.03,0.25 -0.07,0.48 -0.12,0.69 -0.06,0.21 -0.13,0.41 -0.21,0.6 -0.08,0.19 -0.18,0.37 -0.29,0.56 l -1.05,0 c 0.26,-0.37 0.45,-0.74 0.59,-1.12 0.14,-0.38 0.21,-0.75 0.21,-1.12 l -0.75,0 0,-1.87 1.67,0 m 2.45,1.87 0,-1.09 c 0.29,-0.67 0.65,-1.25 1.06,-1.76 0.42,-0.51 0.86,-0.97 1.32,-1.38 0.46,-0.41 0.92,-0.8 1.37,-1.15 0.45,-0.35 0.86,-0.71 1.23,-1.06 0.36,-0.35 0.66,-0.72 0.88,-1.11 0.22,-0.39 0.34,-0.83 0.34,-1.32 0,-0.34 -0.05,-0.64 -0.15,-0.9 -0.1,-0.26 -0.25,-0.48 -0.44,-0.65 -0.19,-0.18 -0.43,-0.31 -0.7,-0.4 -0.27,-0.09 -0.57,-0.13 -0.9,-0.13 -0.31,0 -0.6,0.04 -0.87,0.13 -0.27,0.09 -0.51,0.21 -0.72,0.38 -0.21,0.17 -0.38,0.38 -0.52,0.64 -0.13,0.25 -0.22,0.55 -0.26,0.89 l -1.57,-0.15 c 0.05,-0.43 0.17,-0.84 0.36,-1.22 0.19,-0.38 0.45,-0.72 0.78,-1 0.33,-0.29 0.73,-0.51 1.19,-0.68 0.46,-0.17 1,-0.25 1.61,-0.25 0.6,0 1.13,0.07 1.6,0.21 0.47,0.14 0.86,0.35 1.18,0.63 0.32,0.28 0.57,0.62 0.74,1.03 0.17,0.41 0.26,0.88 0.26,1.42 0,0.4 -0.07,0.79 -0.22,1.15 -0.15,0.36 -0.34,0.71 -0.58,1.04 -0.24,0.33 -0.52,0.65 -0.84,0.96 -0.32,0.31 -0.65,0.61 -1,0.9 -0.35,0.29 -0.7,0.58 -1.05,0.87 -0.35,0.29 -0.68,0.58 -1,0.87 -0.31,0.29 -0.59,0.58 -0.83,0.88 -0.25,0.3 -0.44,0.61 -0.57,0.94 l 6.28,0 0,1.31 -7.97,0" />
  <path
     style="fill:#000000;fill-opacity:1;fill-rule:evenodd;stroke:none;stroke-width:1;stroke-linecap:square;stroke-linejoin:bevel"
     inkscape:connector-curvature="0"
     id="path104"
     d="m 235.6,482.6 c 0,1.16 -0.11,2.13 -0.33,2.92 -0.22,0.79 -0.52,1.43 -0.9,1.91 -0.38,0.49 -0.82,0.84 -1.34,1.05 -0.51,0.21 -1.06,0.32 -1.64,0.32 -0.59,0 -1.13,-0.11 -1.64,-0.32 -0.51,-0.21 -0.95,-0.56 -1.32,-1.04 -0.37,-0.48 -0.67,-1.12 -0.88,-1.91 -0.21,-0.79 -0.32,-1.76 -0.32,-2.93 0,-1.21 0.11,-2.22 0.32,-3.01 0.21,-0.79 0.51,-1.43 0.88,-1.9 0.38,-0.47 0.82,-0.8 1.33,-1 0.51,-0.19 1.07,-0.29 1.67,-0.29 0.57,0 1.11,0.1 1.62,0.29 0.5,0.19 0.94,0.52 1.32,1 0.38,0.47 0.67,1.11 0.89,1.9 0.22,0.79 0.32,1.8 0.32,3.01 m -1.56,0 c 0,-0.96 -0.06,-1.75 -0.17,-2.39 -0.11,-0.64 -0.28,-1.14 -0.5,-1.52 -0.22,-0.38 -0.49,-0.65 -0.82,-0.8 -0.32,-0.16 -0.69,-0.24 -1.1,-0.24 -0.43,0 -0.82,0.08 -1.15,0.24 -0.33,0.16 -0.61,0.43 -0.83,0.81 -0.22,0.38 -0.39,0.89 -0.51,1.52 -0.11,0.63 -0.17,1.43 -0.17,2.38 0,0.92 0.06,1.7 0.17,2.33 0.12,0.63 0.29,1.14 0.51,1.53 0.22,0.38 0.5,0.66 0.82,0.83 0.32,0.17 0.7,0.25 1.11,0.25 0.4,0 0.77,-0.08 1.09,-0.25 0.32,-0.17 0.6,-0.44 0.82,-0.83 0.22,-0.38 0.4,-0.89 0.52,-1.53 0.12,-0.63 0.18,-1.41 0.18,-2.33 m 5.53,4.15 0,1.44 c 0,0.3 -0.01,0.58 -0.04,0.82 -0.03,0.25 -0.07,0.48 -0.12,0.69 -0.06,0.21 -0.13,0.41 -0.21,0.6 -0.08,0.19 -0.18,0.37 -0.29,0.56 l -1.05,0 c 0.26,-0.37 0.45,-0.74 0.59,-1.12 0.14,-0.38 0.21,-0.75 0.21,-1.12 l -0.75,0 0,-1.87 1.67,0 m 9.1,-0.85 0,2.73 -1.45,0 0,-2.73 -5.67,0 0,-1.2 5.51,-8.12 1.62,0 0,8.1 1.69,0 0,1.21 -1.69,0 m -1.45,-7.58 c -0.01,0.03 -0.04,0.08 -0.09,0.17 -0.05,0.08 -0.1,0.18 -0.15,0.28 -0.06,0.1 -0.12,0.21 -0.17,0.31 -0.06,0.11 -0.11,0.19 -0.16,0.26 l -3.08,4.55 c -0.03,0.05 -0.07,0.11 -0.12,0.18 -0.05,0.07 -0.11,0.15 -0.17,0.23 -0.06,0.08 -0.11,0.15 -0.17,0.23 -0.06,0.07 -0.1,0.13 -0.14,0.17 l 4.25,0 0,-6.37" />
  <path
     style="fill:#000000;fill-opacity:1;fill-rule:evenodd;stroke:none;stroke-width:1;stroke-linecap:square;stroke-linejoin:bevel"
     inkscape:connector-curvature="0"
     id="path106"
     d="m 328.79,482.6 c 0,1.16 -0.11,2.13 -0.33,2.92 -0.22,0.79 -0.52,1.43 -0.9,1.91 -0.38,0.49 -0.82,0.84 -1.34,1.05 -0.51,0.21 -1.06,0.32 -1.64,0.32 -0.59,0 -1.13,-0.11 -1.64,-0.32 -0.51,-0.21 -0.95,-0.56 -1.32,-1.04 -0.37,-0.48 -0.67,-1.12 -0.88,-1.91 -0.21,-0.79 -0.32,-1.76 -0.32,-2.93 0,-1.21 0.11,-2.22 0.32,-3.01 0.21,-0.79 0.51,-1.43 0.88,-1.9 0.38,-0.47 0.82,-0.8 1.33,-1 0.51,-0.19 1.07,-0.29 1.67,-0.29 0.57,0 1.11,0.1 1.62,0.29 0.5,0.19 0.94,0.52 1.32,1 0.38,0.47 0.67,1.11 0.89,1.9 0.22,0.79 0.32,1.8 0.32,3.01 m -1.56,0 c 0,-0.96 -0.06,-1.75 -0.17,-2.39 -0.11,-0.64 -0.28,-1.14 -0.5,-1.52 -0.22,-0.38 -0.49,-0.65 -0.82,-0.8 -0.32,-0.16 -0.69,-0.24 -1.1,-0.24 -0.43,0 -0.82,0.08 -1.15,0.24 -0.33,0.16 -0.61,0.43 -0.83,0.81 -0.22,0.38 -0.39,0.89 -0.51,1.52 -0.11,0.63 -0.17,1.43 -0.17,2.38 0,0.92 0.06,1.7 0.17,2.33 0.12,0.63 0.29,1.14 0.51,1.53 0.22,0.38 0.5,0.66 0.82,0.83 0.32,0.17 0.7,0.25 1.11,0.25 0.4,0 0.77,-0.08 1.09,-0.25 0.32,-0.17 0.6,-0.44 0.82,-0.83 0.22,-0.38 0.4,-0.89 0.52,-1.53 0.12,-0.63 0.18,-1.41 0.18,-2.33 m 5.53,4.15 0,1.44 c 0,0.3 -0.01,0.58 -0.04,0.82 -0.03,0.25 -0.07,0.48 -0.12,0.69 -0.06,0.21 -0.13,0.41 -0.21,0.6 -0.08,0.19 -0.18,0.37 -0.29,0.56 l -1.05,0 c 0.26,-0.37 0.45,-0.74 0.59,-1.12 0.14,-0.38 0.21,-0.75 0.21,-1.12 l -0.75,0 0,-1.87 1.67,0 m 10.54,-2.07 c 0,0.6 -0.08,1.16 -0.25,1.66 -0.17,0.5 -0.42,0.94 -0.74,1.3 -0.33,0.36 -0.73,0.64 -1.22,0.85 -0.48,0.2 -1.04,0.3 -1.67,0.3 -0.7,0 -1.31,-0.13 -1.84,-0.4 -0.52,-0.27 -0.96,-0.65 -1.31,-1.16 -0.35,-0.5 -0.61,-1.12 -0.78,-1.85 -0.17,-0.73 -0.26,-1.56 -0.26,-2.5 0,-1.07 0.1,-2.01 0.29,-2.82 0.2,-0.81 0.48,-1.48 0.85,-2.02 0.37,-0.54 0.82,-0.95 1.35,-1.22 0.53,-0.27 1.14,-0.41 1.81,-0.41 0.41,0 0.8,0.04 1.15,0.13 0.36,0.09 0.68,0.22 0.98,0.41 0.29,0.19 0.55,0.44 0.77,0.76 0.22,0.31 0.4,0.7 0.53,1.15 l -1.47,0.27 c -0.16,-0.52 -0.41,-0.89 -0.76,-1.12 -0.35,-0.23 -0.76,-0.35 -1.22,-0.35 -0.42,0 -0.8,0.1 -1.15,0.3 -0.34,0.2 -0.63,0.5 -0.87,0.89 -0.24,0.4 -0.42,0.89 -0.55,1.49 -0.13,0.6 -0.19,1.3 -0.19,2.09 0.28,-0.52 0.67,-0.91 1.18,-1.18 0.51,-0.27 1.09,-0.41 1.74,-0.41 0.55,0 1.04,0.09 1.49,0.26 0.44,0.18 0.82,0.43 1.14,0.76 0.32,0.33 0.56,0.74 0.74,1.21 0.17,0.48 0.26,1.01 0.26,1.6 m -1.56,0.07 c 0,-0.42 -0.05,-0.79 -0.15,-1.13 -0.1,-0.34 -0.26,-0.62 -0.46,-0.86 -0.21,-0.24 -0.46,-0.42 -0.76,-0.55 -0.3,-0.13 -0.65,-0.19 -1.05,-0.19 -0.28,0 -0.56,0.04 -0.85,0.12 -0.28,0.08 -0.54,0.22 -0.77,0.4 -0.23,0.18 -0.42,0.43 -0.56,0.73 -0.15,0.3 -0.22,0.67 -0.22,1.1 0,0.44 0.06,0.86 0.17,1.24 0.11,0.38 0.28,0.72 0.49,1 0.21,0.28 0.47,0.51 0.77,0.67 0.3,0.17 0.64,0.25 1.02,0.25 0.37,0 0.7,-0.06 0.99,-0.19 0.29,-0.13 0.54,-0.31 0.75,-0.56 0.21,-0.24 0.36,-0.54 0.47,-0.88 0.11,-0.35 0.16,-0.74 0.16,-1.17" />
  <path
     style="fill:#000000;fill-opacity:1;fill-rule:evenodd;stroke:none;stroke-width:1;stroke-linecap:square;stroke-linejoin:bevel"
     inkscape:connector-curvature="0"
     id="path108"
     d="m 421.97,482.6 c 0,1.16 -0.11,2.13 -0.33,2.92 -0.22,0.79 -0.52,1.43 -0.9,1.91 -0.38,0.49 -0.82,0.84 -1.34,1.05 -0.51,0.21 -1.06,0.32 -1.64,0.32 -0.59,0 -1.13,-0.11 -1.64,-0.32 -0.51,-0.21 -0.95,-0.56 -1.32,-1.04 -0.37,-0.48 -0.67,-1.12 -0.88,-1.91 -0.21,-0.79 -0.32,-1.76 -0.32,-2.93 0,-1.21 0.11,-2.22 0.32,-3.01 0.21,-0.79 0.51,-1.43 0.88,-1.9 0.38,-0.47 0.82,-0.8 1.33,-1 0.51,-0.19 1.07,-0.29 1.67,-0.29 0.57,0 1.11,0.1 1.62,0.29 0.5,0.19 0.94,0.52 1.32,1 0.38,0.47 0.67,1.11 0.89,1.9 0.22,0.79 0.32,1.8 0.32,3.01 m -1.56,0 c 0,-0.96 -0.06,-1.75 -0.17,-2.39 -0.11,-0.64 -0.28,-1.14 -0.5,-1.52 -0.22,-0.38 -0.49,-0.65 -0.82,-0.8 -0.32,-0.16 -0.69,-0.24 -1.1,-0.24 -0.43,0 -0.82,0.08 -1.15,0.24 -0.33,0.16 -0.61,0.43 -0.83,0.81 -0.22,0.38 -0.39,0.89 -0.51,1.52 -0.11,0.63 -0.17,1.43 -0.17,2.38 0,0.92 0.06,1.7 0.17,2.33 0.12,0.63 0.29,1.14 0.51,1.53 0.22,0.38 0.5,0.66 0.82,0.83 0.32,0.17 0.7,0.25 1.11,0.25 0.4,0 0.77,-0.08 1.09,-0.25 0.32,-0.17 0.6,-0.44 0.82,-0.83 0.22,-0.38 0.4,-0.89 0.52,-1.53 0.12,-0.63 0.18,-1.41 0.18,-2.33 m 5.53,4.15 0,1.44 c 0,0.3 -0.01,0.58 -0.04,0.82 -0.03,0.25 -0.07,0.48 -0.12,0.69 -0.06,0.21 -0.13,0.41 -0.21,0.6 -0.08,0.19 -0.18,0.37 -0.29,0.56 l -1.05,0 c 0.26,-0.37 0.45,-0.74 0.59,-1.12 0.14,-0.38 0.21,-0.75 0.21,-1.12 l -0.75,0 0,-1.87 1.67,0 m 10.54,-1.49 c 0,0.51 -0.08,0.98 -0.24,1.41 -0.16,0.43 -0.41,0.8 -0.74,1.11 -0.33,0.31 -0.76,0.56 -1.28,0.73 -0.52,0.18 -1.13,0.26 -1.84,0.26 -0.71,0 -1.32,-0.09 -1.83,-0.26 -0.52,-0.18 -0.94,-0.42 -1.28,-0.73 -0.34,-0.31 -0.59,-0.68 -0.75,-1.11 -0.16,-0.43 -0.24,-0.9 -0.24,-1.4 0,-0.44 0.07,-0.83 0.2,-1.17 0.13,-0.34 0.31,-0.64 0.54,-0.88 0.22,-0.25 0.48,-0.45 0.77,-0.6 0.29,-0.15 0.58,-0.25 0.89,-0.3 l 0,-0.03 c -0.34,-0.08 -0.64,-0.21 -0.9,-0.39 -0.27,-0.18 -0.49,-0.39 -0.67,-0.64 -0.18,-0.25 -0.32,-0.52 -0.41,-0.82 -0.09,-0.3 -0.14,-0.62 -0.14,-0.96 0,-0.42 0.08,-0.82 0.24,-1.19 0.16,-0.37 0.4,-0.7 0.72,-0.98 0.32,-0.28 0.71,-0.5 1.19,-0.67 0.47,-0.16 1.02,-0.24 1.64,-0.24 0.66,0 1.22,0.08 1.7,0.25 0.48,0.17 0.88,0.39 1.2,0.67 0.32,0.28 0.55,0.61 0.71,0.99 0.15,0.38 0.23,0.77 0.23,1.2 0,0.33 -0.05,0.65 -0.14,0.95 -0.09,0.3 -0.23,0.58 -0.41,0.82 -0.18,0.25 -0.4,0.46 -0.67,0.63 -0.27,0.17 -0.57,0.3 -0.92,0.36 l 0,0.03 c 0.35,0.06 0.67,0.16 0.96,0.31 0.3,0.15 0.55,0.35 0.77,0.6 0.22,0.25 0.39,0.54 0.51,0.88 0.12,0.34 0.19,0.73 0.19,1.16 m -1.9,-5.67 c 0,-0.3 -0.04,-0.58 -0.12,-0.83 -0.08,-0.25 -0.2,-0.47 -0.38,-0.65 -0.18,-0.18 -0.41,-0.32 -0.69,-0.42 -0.28,-0.1 -0.63,-0.15 -1.05,-0.15 -0.4,0 -0.75,0.05 -1.02,0.15 -0.28,0.1 -0.51,0.24 -0.69,0.42 -0.18,0.18 -0.31,0.39 -0.39,0.65 -0.08,0.25 -0.12,0.53 -0.12,0.83 0,0.24 0.03,0.48 0.09,0.73 0.06,0.25 0.18,0.48 0.34,0.68 0.17,0.21 0.39,0.37 0.68,0.5 0.29,0.13 0.66,0.2 1.12,0.2 0.48,0 0.87,-0.07 1.17,-0.2 0.29,-0.13 0.52,-0.3 0.67,-0.5 0.16,-0.21 0.26,-0.43 0.31,-0.68 0.05,-0.25 0.07,-0.5 0.07,-0.73 m 0.3,5.53 c 0,-0.29 -0.04,-0.57 -0.12,-0.84 -0.08,-0.27 -0.22,-0.51 -0.41,-0.72 -0.19,-0.21 -0.45,-0.38 -0.78,-0.5 -0.33,-0.13 -0.74,-0.19 -1.23,-0.19 -0.45,0 -0.83,0.06 -1.15,0.19 -0.32,0.13 -0.57,0.3 -0.77,0.51 -0.2,0.21 -0.34,0.45 -0.43,0.73 -0.09,0.28 -0.14,0.56 -0.14,0.86 0,0.37 0.05,0.71 0.14,1.01 0.09,0.3 0.24,0.57 0.44,0.79 0.2,0.22 0.46,0.39 0.79,0.51 0.32,0.12 0.72,0.18 1.18,0.18 0.47,0 0.86,-0.06 1.18,-0.18 0.32,-0.12 0.57,-0.29 0.77,-0.51 0.19,-0.22 0.33,-0.48 0.41,-0.79 0.08,-0.31 0.12,-0.66 0.12,-1.04" />
  <path
     style="fill:#000000;fill-opacity:1;fill-rule:evenodd;stroke:none;stroke-width:1;stroke-linecap:square;stroke-linejoin:bevel"
     inkscape:connector-curvature="0"
     id="path110"
     d="m 514.73,488.63 0,-1.31 3.07,0 0,-9.26 -2.72,1.94 0,-1.45 2.85,-1.96 1.42,0 0,10.73 2.93,0 0,1.31 -7.55,0" />
  <g
     id="g114"
     style="fill:#ff0000;fill-rule:evenodd;stroke:none;stroke-width:1;stroke-linecap:square;stroke-linejoin:miter"
     transform="translate(-8.11,-4.4)">
    <g
       transform="translate(107.05,286.66)"
       id="g116">
      <path
         d="m 6.25,0 c 0,3.45 -2.8,6.25 -6.25,6.25 -3.45,0 -6.25,-2.8 -6.25,-6.25 0,-3.45 2.8,-6.25 6.25,-6.25 3.45,0 6.25,2.8 6.25,6.25"
         id="p0"
         inkscape:connector-curvature="0" />
    </g>
  </g>
  <use
     style="fill:#0000ff;fill-rule:evenodd;stroke:none;stroke-width:1;stroke-linecap:square;stroke-linejoin:miter"
     height="100%"
     width="100%"
     id="use121"
     y="193.48"
     x="293.42001"
     xlink:href="#p0"
     transform="translate(-8.11,-4.4)" />
  <use
     style="fill:#0000ff;fill-rule:evenodd;stroke:none;stroke-width:1;stroke-linecap:square;stroke-linejoin:miter"
     height="100%"
     width="100%"
     id="use123"
     y="240.07001"
     x="386.60001"
     xlink:href="#p0"
     transform="translate(-8.11,-4.4)" />
  <use
     style="fill:#0000ff;fill-rule:evenodd;stroke:none;stroke-width:1;stroke-linecap:square;stroke-linejoin:miter"
     height="100%"
     width="100%"
     id="use125"
     y="286.66"
     x="340.01001"
     xlink:href="#p0"
     transform="translate(-8.11,-4.4)" />
  <g
     id="g127"
     style="fill:#ff0000;fill-rule:evenodd;stroke:none;stroke-width:1;stroke-linecap:square;stroke-linejoin:miter"
     transform="translate(-8.11,-4.4)">
    <use
       xlink:href="#p0"
       x="153.64"
       y="426.44"
       id="use129"
       width="100%"
       height="100%" />
  </g>
  <use
     style="fill:#0000ff;fill-rule:evenodd;stroke:none;stroke-width:1;stroke-linecap:square;stroke-linejoin:miter"
     height="100%"
     width="100%"
     id="use133"
     y="53.700001"
     x="200.24001"
     xlink:href="#p0"
     transform="translate(-8.11,-4.4)" />
  <use
     style="fill:#0000ff;fill-rule:evenodd;stroke:none;stroke-width:1;stroke-linecap:square;stroke-linejoin:miter"
     height="100%"
     width="100%"
     id="use135"
     y="100.3"
     x="246.83"
     xlink:href="#p0"
     transform="translate(-8.11,-4.4)" />
  <use
     style="fill:#ff0000;fill-rule:evenodd;stroke:none;stroke-width:1;stroke-linecap:square;stroke-linejoin:miter"
     height="100%"
     width="100%"
     id="use139"
     y="403.14001"
     x="340.01001"
     xlink:href="#p0"
     transform="translate(-8.11,-4.4)" />
  <use
     style="fill:#ff0000;fill-rule:evenodd;stroke:none;stroke-width:1;stroke-linecap:square;stroke-linejoin:miter"
     height="100%"
     width="100%"
     id="use141"
     y="426.44"
     x="433.19"
     xlink:href="#p0"
     transform="translate(-8.11,-4.4)" />
  <use
     style="fill:#ff0000;fill-rule:evenodd;stroke:none;stroke-width:1;stroke-linecap:square;stroke-linejoin:miter"
     height="100%"
     width="100%"
     id="use143"
     y="379.84"
     x="246.83"
     xlink:href="#p0"
     transform="translate(-8.11,-4.4)" />
  <use
     style="fill:#0000ff;fill-rule:evenodd;stroke:none;stroke-width:1;stroke-linecap:square;stroke-linejoin:miter"
     height="100%"
     width="100%"
     id="use125-3"
     y="286.66"
     x="340.01001"
     xlink:href="#p0"
     transform="translate(-217.94027,-144.65035)" />
  <use
     style="fill:#0000ff;fill-rule:evenodd;stroke:none;stroke-width:1;stroke-linecap:square;stroke-linejoin:miter"
     height="100%"
     width="100%"
     id="use125-6"
     y="286.66"
     x="340.01001"
     xlink:href="#p0"
     transform="translate(-133.16961,-91.527402)" />
  <use
     style="fill:#0000ff;fill-rule:evenodd;stroke:none;stroke-width:1;stroke-linecap:square;stroke-linejoin:miter"
     height="100%"
     width="100%"
     id="use125-7"
     y="286.66"
     x="340.01001"
     xlink:href="#p0"
     transform="translate(-58.57143,-51.967763)" />
  <use
     style="fill:#0000ff;fill-rule:evenodd;stroke:none;stroke-width:1;stroke-linecap:square;stroke-linejoin:miter"
     height="100%"
     width="100%"
     id="use125-5"
     y="286.66"
     x="340.01001"
     xlink:href="#p0"
     transform="translate(4.7239883,-135.60814)" />
  <use
     style="fill:#0000ff;fill-rule:evenodd;stroke:none;stroke-width:1;stroke-linecap:square;stroke-linejoin:miter"
     height="100%"
     width="100%"
     id="use125-35"
     y="286.66"
     x="340.01001"
     xlink:href="#p0"
     transform="translate(-144.47236,-146.9109)" />
  <use
     style="fill:#0000ff;fill-rule:evenodd;stroke:none;stroke-width:1;stroke-linecap:square;stroke-linejoin:miter"
     height="100%"
     width="100%"
     id="use125-62"
     y="286.66"
     x="340.01001"
     xlink:href="#p0"
     transform="translate(84.973542,22.630414)" />
  <use
     style="fill:#0000ff;fill-rule:evenodd;stroke:none;stroke-width:1;stroke-linecap:square;stroke-linejoin:miter"
     height="100%"
     width="100%"
     id="use125-9"
     y="286.66"
     x="340.01001"
     xlink:href="#p0"
     transform="translate(117.75153,-94.918228)" />
  <use
     style="fill:#0000ff;fill-rule:evenodd;stroke:none;stroke-width:1;stroke-linecap:square;stroke-linejoin:miter"
     height="100%"
     width="100%"
     id="use125-1"
     y="286.66"
     x="340.01001"
     xlink:href="#p0"
     transform="translate(146.00841,107.40106)" />
  <use
     style="fill:#ff0000;fill-rule:evenodd;stroke:none;stroke-width:1;stroke-linecap:square;stroke-linejoin:miter"
     height="100%"
     width="100%"
     id="use139-2"
     y="403.14001"
     x="340.01001"
     xlink:href="#p0"
     transform="translate(-219.07054,-28.293624)" />
  <use
     style="fill:#ff0000;fill-rule:evenodd;stroke:none;stroke-width:1;stroke-linecap:square;stroke-linejoin:miter"
     height="100%"
     width="100%"
     id="use139-7"
     y="403.14001"
     x="340.01001"
     xlink:href="#p0"
     transform="translate(-200.98614,-102.8918)" />
  <use
     style="fill:#ff0000;fill-rule:evenodd;stroke:none;stroke-width:1;stroke-linecap:square;stroke-linejoin:miter"
     height="100%"
     width="100%"
     id="use139-0"
     y="403.14001"
     x="340.01001"
     xlink:href="#p0"
     transform="translate(-134.29988,-62.201885)" />
  <use
     style="fill:#ff0000;fill-rule:evenodd;stroke:none;stroke-width:1;stroke-linecap:square;stroke-linejoin:miter"
     height="100%"
     width="100%"
     id="use139-9"
     y="403.14001"
     x="340.01001"
     xlink:href="#p0"
     transform="translate(-161.4265,-22.642247)" />
  <use
     style="fill:#ff0000;fill-rule:evenodd;stroke:none;stroke-width:1;stroke-linecap:square;stroke-linejoin:miter"
     height="100%"
     width="100%"
     id="use139-3"
     y="403.14001"
     x="340.01001"
     xlink:href="#p0"
     transform="translate(-110.5641,-113.06428)" />
  <use
     style="fill:#ff0000;fill-rule:evenodd;stroke:none;stroke-width:1;stroke-linecap:square;stroke-linejoin:miter"
     height="100%"
     width="100%"
     id="use139-6"
     y="403.14001"
     x="340.01001"
     xlink:href="#p0"
     transform="translate(-50.659506,29.350422)" />
  <use
     style="fill:#ff0000;fill-rule:evenodd;stroke:none;stroke-width:1;stroke-linecap:square;stroke-linejoin:miter"
     height="100%"
     width="100%"
     id="use139-06"
     y="403.14001"
     x="340.01001"
     xlink:href="#p0"
     transform="translate(-26.923723,-59.941335)" />
  <use
     style="fill:#0000ff;fill-rule:evenodd;stroke:none;stroke-width:1;stroke-linecap:square;stroke-linejoin:miter"
     height="100%"
     width="100%"
     id="use125-6-2"
     y="286.66"
     x="340.01001"
     xlink:href="#p0"
     transform="translate(-207.76779,-70.052169)" />
</svg>
